<svg height="480pt" viewBox="0 -88 480 480" width="480pt" xmlns="http://www.w3.org/2000/svg"><path d="m472 0h-464c-4.417969 0-8 3.582031-8 8v288c0 4.417969 3.582031 8 8 8h464c4.417969 0 8-3.582031 8-8v-288c0-4.417969-3.582031-8-8-8zm-175.359375 240h55.359375v48c-27.8125-.03125-51.386719-20.472656-55.359375-48zm23.359375-38.863281v22.863281h-22.863281c2.925781-11.195312 11.667969-19.9375 22.863281-22.863281zm32 22.863281h-16v-22.527344c9.554688 3.378906 15.957031 12.394532 16 22.527344zm16 8v-32h95.59375c-4.195312 49.699219-45.71875 87.921875-95.59375 88zm-8-48h-64v-167.800781c90.859375 4.242187 163.558594 76.941406 167.800781 167.800781zm-344-168h177.511719c-83.097657 29.082031-148.429688 94.414062-177.511719 177.511719zm264 .199219v271.800781h-264c.1875-147.015625 117.050781-267.332031 264-271.800781zm16 271.800781v-10.847656c3.222656 3.988281 6.859375 7.625 10.847656 10.847656zm168 0h-38.609375c15.839844-9.511719 29.097656-22.769531 38.609375-38.609375zm-99.375-272h99.375v99.375c-19.46875-44.429688-54.945312-79.90625-99.375-99.375zm0 0"/></svg>