<svg height="484pt" viewBox="-61 0 484 484.375" width="484pt" xmlns="http://www.w3.org/2000/svg"><path d="m6.382812 484.375h349.609376c3.3125 0 6.195312-2.3125 6.195312-5.625v-412.195312c-.078125-3.386719-2.808594-6.109376-6.195312-6.179688h-44.804688v-12.03125c0-3.3125-3.070312-5.96875-6.382812-5.96875h-30.617188v-36.375c0-3.3125-2.6875-6-6-6s-6 2.6875-6 6v36.375h-29.777344c-3.351562-.03125-6.113281 2.617188-6.222656 5.96875v12.03125h-90v-12.03125c-.109375-3.351562-2.871094-6-6.222656-5.96875h-29.777344v-36.375c0-3.3125-2.6875-6-6-6s-6 2.6875-6 6v36.375h-30.617188c-3.3125 0-6.382812 2.65625-6.382812 5.96875v12.03125h-44.804688c-3.386718.070312-6.117187 2.792969-6.195312 6.179688v412.195312c0 3.3125 2.882812 5.625 6.195312 5.625zm231.804688-430h61v22h-61zm-175 0h61v22h-61zm-51 18h39v10.117188c0 3.3125 3.070312 5.882812 6.382812 5.882812h72.394532c3.332031.070312 6.105468-2.550781 6.222656-5.882812v-10.117188h90v10.117188c.117188 3.332031 2.890625 5.953124 6.222656 5.882812h72.394532c3.3125 0 6.382812-2.570312 6.382812-5.882812v-10.117188h39v400h-338zm0 0"/><path d="m303.210938 381.375h-244.046876c-3.3125 0-6 2.6875-6 6s2.6875 6 6 6h244.046876c3.3125 0 6-2.6875 6-6s-2.6875-6-6-6zm0 0"/><path d="m303.210938 425.375h-244.046876c-3.3125 0-6 2.6875-6 6s2.6875 6 6 6h244.046876c3.3125 0 6-2.6875 6-6s-2.6875-6-6-6zm0 0"/><path d="m308.1875 134.375c0-3.3125-2.6875-6-6-6h-242c-3.3125 0-6 2.6875-6 6v205c0 3.3125 2.6875 6 6 6h242c3.3125 0 6-2.6875 6-6zm-242 6h230v193h-230zm0 0"/><path d="m213.625 205.828125-10.4375-1.109375v-21.574219c.070312-1.921875-.808594-3.753906-2.351562-4.902343-1.589844-1.058594-3.597657-1.261719-5.367188-.546876l-66.78125 23.679688h-33.929688c-6.378906 0-11.570312 4.75-11.570312 11.128906v33.765625c0 4.5 3 8.40625 6 10.316407v33.019531c0 3.316406 3.046875 5.769531 6.359375 5.769531h19.351563c2.640624.046875 4.988281-1.660156 5.753906-4.1875l9.699218-32.820312 65.203126 22.898437c.636718.230469 1.308593.347656 1.984374.351563 1.1875.003906 2.34375-.382813 3.292969-1.097657 1.542969-1.144531 2.421875-2.972656 2.355469-4.890625v-23.058594l10.4375-1.113281c8.753906-.917969 15.441406-8.238281 15.5625-17.042969v-11.539062c-.117188-8.804688-6.804688-16.128906-15.5625-17.046875zm-118.4375 7.546875h29v32h-29zm15.226562 70h-9.226562v-26h16.828125zm80.773438-16.207031-55-19.582031v-36.402344l55-19.582032zm26-32.753907c-.128906 2.679688-2.203125 4.855469-4.871094 5.113282l-9.128906.96875v-23.707032l9.128906.96875c2.667969.261719 4.742188 2.4375 4.871094 5.117188zm0 0"/><path d="m274.1875 223.375h-33c-3.3125 0-6 2.6875-6 6s2.6875 6 6 6h33c3.3125 0 6-2.6875 6-6s-2.6875-6-6-6zm0 0"/><path d="m238.6875 215.421875c.503906 0 1.007812-.0625 1.492188-.191406l23.363281-5.988281c3.210937-.824219 5.144531-4.09375 4.320312-7.300782-.824219-3.210937-4.09375-5.144531-7.300781-4.324218l-23.359375 5.992187c-2.933594.746094-4.851563 3.558594-4.472656 6.5625.378906 3 2.929687 5.253906 5.957031 5.25zm0 0"/><path d="m263.539062 250.328125-23.359374-5.988281c-3.207032-.808594-6.460938 1.128906-7.28125 4.328125-.820313 3.199219 1.101562 6.460937 4.300781 7.296875l23.359375 5.988281c3.210937.824219 6.480468-1.109375 7.300781-4.320313.824219-3.210937-1.109375-6.480468-4.320313-7.304687zm0 0"/></svg>